<?xml version="1.0" standalone="no"?>
<svg viewBox="0 0 200 200" xmlns="http://www.w3.org/2000/svg">
  <path fill="#08BDBA" d="M23.4,-34.3C37,-27.6,59.4,-32.5,71.7,-26.6C83.9,-20.7,86.1,-4,76.6,5.8C67,15.6,45.8,18.4,35.7,31.9C25.5,45.4,26.5,69.4,17.8,81.5C9.1,93.6,-9.2,93.8,-23.3,86.4C-37.5,79.1,-47.4,64.4,-46.7,49.3C-46.1,34.2,-34.9,18.8,-27.6,9.5C-20.3,0.3,-16.8,-2.9,-20.7,-15.8C-24.6,-28.6,-36.1,-51.2,-33.8,-63.1C-31.6,-75,-15.8,-76.1,-5.5,-67.6C4.9,-59.1,9.8,-41,23.4,-34.3Z" transform="translate(100 100)" />
</svg>
