<?xml version="1.0" encoding="UTF-8" standalone="no"?>
<svg
   xmlns:dc="http://purl.org/dc/elements/1.1/"
   xmlns:cc="http://creativecommons.org/ns#"
   xmlns:rdf="http://www.w3.org/1999/02/22-rdf-syntax-ns#"
   xmlns:svg="http://www.w3.org/2000/svg"
   xmlns="http://www.w3.org/2000/svg"
   viewBox="0 0 200 200"
   version="1.1"
   id="svg3138">
  <metadata
     id="metadata3144">
    <rdf:RDF>
      <cc:Work
         rdf:about="">
        <dc:format>image/svg+xml</dc:format>
        <dc:type
           rdf:resource="http://purl.org/dc/dcmitype/StillImage" />
        <dc:title></dc:title>
      </cc:Work>
    </rdf:RDF>
  </metadata>
  <defs
     id="defs3142" />
  <path
     d="m 146.78771,47.76024 c 15.20069,15.413403 31.84908,27.744126 40.53521,47.700433 8.50514,19.956287 9.04802,47.538167 -6.15268,59.057657 -15.2007,11.68173 -41.72674,-3.1929 -75.92831,-0.27246 -34.020612,2.75819 -75.535811,23.31144 -87.298258,11.79195 C 6.1812247,154.51833 30.103731,121.94304 35.170633,93.225453 40.418492,64.50784 26.99171,39.647922 38.935116,24.234518 50.697564,8.658868 77.479752,1.8445216 97.747349,7.847637 117.83399,13.688506 131.58701,32.346836 146.78771,47.76024 Z"
     id="path3136"
     style="fill:#ba00e3;fill-opacity:0.40240239;stroke-width:1.71348238" />
  <path
     d="m 151.0286,95.768829 c 6.84203,17.403351 15.74586,32.567321 16.20083,52.059041 0.31665,19.44163 -7.81555,43.21103 -23.00363,48.87115 -15.23835,5.79906 -30.90367,-14.27541 -57.950037,-21.23438 C 59.418001,168.41678 21.317499,174.53445 15.896771,161.41657 10.476041,148.29869 38.8553,127.02019 51.62718,103.82987 64.537378,80.689587 61.978512,55.687535 75.883589,45.791989 89.70063,35.707455 112.28277,37.279821 125.91369,48.026305 c 13.54288,10.557497 18.27287,30.339168 25.11491,47.742524 z"
     id="path3136-8"
     style="fill:#7400ab;fill-opacity:0.44144143;stroke-width:1.47422469" />
  <path
     d="m 95.34129,35.845745 c 15.48686,10.480811 31.40714,17.948654 42.80842,33.764626 11.25889,15.852911 17.99878,40.053969 8.67615,53.313049 -9.28549,13.4021 -33.55924,5.70979 -59.79889,15.27087 -26.134399,9.3811 -54.092336,35.97862 -65.982937,28.2277 C 9.1534317,158.67108 20.5188,125.07071 17.932471,98.722598 15.488503,72.337504 -0.76478633,53.167713 5.1039527,37.141764 10.793184,21.009775 30.304413,9.532094 47.623881,10.683147 64.763843,11.728159 79.85443,25.364933 95.34129,35.845745 Z"
     id="path3136-8-1"
     style="fill:#a50057;fill-opacity:0.35735735;stroke-width:1.47422469" />
</svg>
